<svg width="25" height="25" viewBox="0 0 25 25" fill="none" xmlns="http://www.w3.org/2000/svg">
<path fill-rule="evenodd" clip-rule="evenodd" d="M20.8443 17.957C19.0139 17.957 17.531 19.4399 17.531 21.2703C17.531 23.1007 19.0139 24.5836 20.8443 24.5836C22.6746 24.5836 24.1576 23.1007 24.1576 21.2703C24.1576 19.4399 22.6746 17.957 20.8443 17.957Z" fill="#555555"/>
<path fill-rule="evenodd" clip-rule="evenodd" d="M12.2447 17.957C10.4143 17.957 8.9314 19.4399 8.9314 21.2703C8.9314 23.1007 10.4143 24.5836 12.2447 24.5836C14.075 24.5836 15.5579 23.1007 15.5579 21.2703C15.5579 19.4399 14.075 17.957 12.2447 17.957Z" fill="#555555"/>
<path fill-rule="evenodd" clip-rule="evenodd" d="M3.64506 17.957C1.81469 17.957 0.331787 19.4399 0.331787 21.2703C0.331787 23.1007 1.81469 24.5836 3.64506 24.5836C5.47543 24.5836 6.95834 23.1007 6.95834 21.2703C6.95834 19.4399 5.47543 17.957 3.64506 17.957Z" fill="#555555"/>
<path fill-rule="evenodd" clip-rule="evenodd" d="M20.8443 9.35742C19.0139 9.35742 17.531 10.8403 17.531 12.6707C17.531 14.5011 19.0139 15.984 20.8443 15.984C22.6746 15.984 24.1576 14.5011 24.1576 12.6707C24.1576 10.8403 22.6746 9.35742 20.8443 9.35742Z" fill="#555555"/>
<path fill-rule="evenodd" clip-rule="evenodd" d="M12.2447 9.35742C10.4143 9.35742 8.9314 10.8403 8.9314 12.6707C8.9314 14.5011 10.4143 15.984 12.2447 15.984C14.075 15.984 15.5579 14.5011 15.5579 12.6707C15.5579 10.8403 14.075 9.35742 12.2447 9.35742Z" fill="#555555"/>
<path fill-rule="evenodd" clip-rule="evenodd" d="M3.64506 9.35742C1.81469 9.35742 0.331787 10.8403 0.331787 12.6707C0.331787 14.5011 1.81469 15.984 3.64506 15.984C5.47543 15.984 6.95834 14.5011 6.95834 12.6707C6.95834 10.8403 5.47543 9.35742 3.64506 9.35742Z" fill="#555555"/>
<path fill-rule="evenodd" clip-rule="evenodd" d="M20.8443 7.38436C22.6746 7.38436 24.1576 5.90145 24.1576 4.07109C24.1576 2.24072 22.6746 0.757812 20.8443 0.757812C19.0139 0.757812 17.531 2.24072 17.531 4.07109C17.531 5.90145 19.0139 7.38436 20.8443 7.38436Z" fill="#555555"/>
<path fill-rule="evenodd" clip-rule="evenodd" d="M12.2447 0.757812C10.4143 0.757812 8.9314 2.24072 8.9314 4.07109C8.9314 5.90145 10.4143 7.38436 12.2447 7.38436C14.075 7.38436 15.5579 5.90145 15.5579 4.07109C15.5579 2.24072 14.075 0.757812 12.2447 0.757812Z" fill="#555555"/>
<path fill-rule="evenodd" clip-rule="evenodd" d="M3.64506 0.757812C1.81469 0.757812 0.331787 2.24072 0.331787 4.07109C0.331787 5.90145 1.81469 7.38436 3.64506 7.38436C5.47543 7.38436 6.95834 5.90145 6.95834 4.07109C6.95834 2.24072 5.47543 0.757812 3.64506 0.757812Z" fill="#555555"/>
</svg>
