<svg width="29" height="31" viewBox="0 0 29 31" fill="none" xmlns="http://www.w3.org/2000/svg">
<g clip-path="url(#clip0_1090_860)">
<path fill-rule="evenodd" clip-rule="evenodd" d="M12.8418 7.25956C13.3247 7.25956 14.4721 7.56495 14.4721 7.56495C17.5804 8.27725 19.7683 11.1403 19.7683 14.3729V22.1729V23.0737L20.4038 23.7122L20.9348 24.2456H4.61239L5.14339 23.7122L5.77892 23.0737V22.1729V14.3729C5.77892 11.1404 7.9668 8.27725 11.0751 7.56495C11.0751 7.56495 12.3053 7.25956 12.7054 7.25956H12.8418ZM12.7736 2.31836C11.5735 2.31836 10.656 3.24004 10.656 4.44563V5.43829C6.63221 6.36031 3.5971 10.0475 3.5971 14.3729V22.1729L0.773621 25.0093V26.4275H24.7736V25.0093L21.9501 22.1729V14.3729C21.9501 10.0475 18.915 6.36031 14.8913 5.43829V4.44563C14.8913 3.24004 13.9738 2.31836 12.7736 2.31836ZM15.5971 27.8456H9.95008C9.95008 29.4057 11.2205 30.682 12.7736 30.682C14.3267 30.682 15.5971 29.4057 15.5971 27.8456Z" fill="#555555"/>
<circle cx="20.7736" cy="8.5" r="8" fill="#252A34"/>
<path d="M23.6716 7.479C23.6716 7.82992 23.6035 8.13428 23.4675 8.39209C23.3314 8.6499 23.1416 8.86117 22.8981 9.02588C22.6546 9.18701 22.3682 9.2998 22.0388 9.36426V9.40723C22.6618 9.486 23.1291 9.68652 23.4406 10.0088C23.7557 10.3311 23.9133 10.7536 23.9133 11.2764C23.9133 11.7311 23.8058 12.134 23.591 12.4849C23.3797 12.8358 23.0539 13.1115 22.6135 13.312C22.1766 13.509 21.6162 13.6074 20.9323 13.6074C20.5169 13.6074 20.132 13.5734 19.7775 13.5054C19.4266 13.4409 19.09 13.3317 18.7678 13.1777V12.3398C19.0936 12.501 19.4481 12.6281 19.8312 12.7212C20.2144 12.8107 20.585 12.8555 20.9431 12.8555C21.6592 12.8555 22.1766 12.714 22.4953 12.4312C22.814 12.1447 22.9733 11.7544 22.9733 11.2603C22.9733 10.9201 22.8838 10.6462 22.7048 10.4385C22.5293 10.2272 22.2751 10.0732 21.9421 9.97656C21.6127 9.8763 21.2152 9.82617 20.7497 9.82617H19.9655V9.06348H20.7551C21.1812 9.06348 21.5428 9.00081 21.84 8.87549C22.1372 8.75016 22.3628 8.57471 22.5168 8.34912C22.6743 8.11995 22.7531 7.84961 22.7531 7.53809C22.7531 7.14062 22.6206 6.83447 22.3557 6.61963C22.0907 6.4012 21.7308 6.29199 21.2761 6.29199C20.9968 6.29199 20.7425 6.32064 20.5134 6.37793C20.2842 6.43522 20.0694 6.514 19.8688 6.61426C19.6683 6.71452 19.4678 6.83089 19.2673 6.96338L18.8161 6.35107C19.1026 6.12907 19.4517 5.9375 19.8635 5.77637C20.2752 5.61523 20.7425 5.53467 21.2653 5.53467C22.0674 5.53467 22.669 5.71729 23.07 6.08252C23.471 6.44775 23.6716 6.91325 23.6716 7.479Z" fill="white"/>
</g>
<defs>
<clipPath id="clip0_1090_860">
<rect width="29" height="31" fill="white"/>
</clipPath>
</defs>
</svg>
