<svg width="16" height="16" viewBox="0 0 16 16" fill="none" xmlns="http://www.w3.org/2000/svg">
<path fill-rule="evenodd" clip-rule="evenodd" d="M16 15.0292L11.2792 10.3042C12.1458 9.22083 12.6667 7.84167 12.6667 6.34167C12.6667 2.8375 9.82917 0 6.33333 0C2.83333 0 0 2.84167 0 6.34167C0 9.84167 2.8375 12.6833 6.33333 12.6833C7.84167 12.6833 9.225 12.1542 10.3125 11.275L15.0292 16L16 15.0292ZM2.325 10.3583C1.25417 9.2875 0.666667 7.8625 0.666667 6.34583C0.666667 4.82917 1.25833 3.40417 2.325 2.33333C3.39167 1.2625 4.82083 0.666667 6.33333 0.666667C7.84583 0.666667 9.27083 1.25833 10.3417 2.32917C11.4125 3.4 12 4.825 12 6.34167C12 7.85833 11.4083 9.28333 10.3417 10.3542C9.27083 11.425 7.84583 12.0167 6.33333 12.0167C4.82083 12.0208 3.39583 11.4292 2.325 10.3583Z" fill="#05070B"/>
</svg>
