<svg width="25" height="25" viewBox="0 0 25 25" fill="none" xmlns="http://www.w3.org/2000/svg">
<path fill-rule="evenodd" clip-rule="evenodd" d="M12.2493 6.73828C10.6522 6.73828 9.15465 7.35969 8.02997 8.48443C6.90528 9.60918 6.28381 11.1067 6.28381 12.7038C6.28381 14.3007 6.90522 15.7921 8.02997 16.9231C9.15471 18.0479 10.6586 18.6693 12.2493 18.6693C13.8463 18.6693 15.3439 18.0479 16.4687 16.9231C17.5934 15.7983 18.2148 14.3007 18.2148 12.7038C18.2148 11.1067 17.5934 9.61533 16.4687 8.48443C15.3439 7.35969 13.8463 6.73828 12.2493 6.73828ZM12.2493 17.675C9.49643 17.675 7.27806 15.4442 7.27806 12.7038C7.27806 9.96332 9.49643 7.73253 12.2493 7.73253C15.0021 7.73253 17.2206 9.96332 17.2206 12.7038C17.2206 15.4442 15.0021 17.675 12.2493 17.675Z" fill="#555555"/>
<path fill-rule="evenodd" clip-rule="evenodd" d="M8.82451 1.94928C9.10153 2.36115 9.45331 2.7202 9.86692 3.00996C10.5512 3.48938 11.3556 3.74279 12.1933 3.74279C13.0311 3.74279 13.8356 3.48938 14.5198 3.00996C14.9333 2.7202 15.2852 2.36115 15.5621 1.94934C16.2038 2.14993 16.8257 2.40782 17.4218 2.72057C17.3266 3.20776 17.3215 3.71047 17.4092 4.20779C17.5542 5.03022 17.9438 5.77802 18.536 6.37016C19.3025 7.13672 20.3217 7.55885 21.4059 7.55885C21.6695 7.55885 21.9294 7.53405 22.184 7.48459C22.4966 8.08114 22.7545 8.70335 22.9548 9.34552C22.5433 9.62266 22.1845 9.97444 21.8951 10.388C21.4163 11.072 21.1632 11.876 21.1633 12.7132C21.1633 13.55 21.4161 14.3537 21.8946 15.0376C22.1837 15.4509 22.5421 15.8027 22.9532 16.0798C22.7524 16.7223 22.4942 17.3446 22.1809 17.9413C21.9273 17.8923 21.6685 17.8676 21.4059 17.8676C20.3217 17.8676 19.3024 18.2898 18.536 19.0564C17.9448 19.6476 17.5554 20.3941 17.4099 21.2151C17.3219 21.7115 17.3264 22.2134 17.4208 22.7C16.8238 23.0132 16.2012 23.2712 15.5586 23.4718C15.2814 23.0611 14.9297 22.7029 14.5165 22.4141C13.8329 21.9363 13.0296 21.6837 12.1933 21.6837C11.3571 21.6837 10.5537 21.9362 9.87015 22.4141C9.45698 22.703 9.1052 23.0611 8.82799 23.4718C8.18552 23.2712 7.56287 23.0132 6.96588 22.7001C7.06027 22.2136 7.06475 21.7116 6.97682 21.2152C6.83128 20.3941 6.44191 19.6475 5.85064 19.0564C5.08414 18.2898 4.0649 17.8676 2.98067 17.8676C2.71807 17.8676 2.45931 17.8922 2.20572 17.9414C1.89253 17.3447 1.63433 16.7223 1.43343 16.0798C1.84449 15.8026 2.20292 15.451 2.49206 15.0376C2.97048 14.3538 3.2234 13.55 3.2234 12.713C3.2234 11.8759 2.97036 11.0719 2.49156 10.3879C2.20211 9.97438 1.84331 9.62254 1.43182 9.34539C1.63222 8.70329 1.88992 8.08108 2.20267 7.48453C2.4572 7.53399 2.71701 7.55885 2.98074 7.55885C4.06484 7.55885 5.08414 7.13666 5.8507 6.3701C6.44284 5.77789 6.83247 5.03016 6.9775 4.20766C7.06518 3.71035 7.06015 3.20763 6.96489 2.72051C7.56107 2.40782 8.18284 2.14993 8.82451 1.94928ZM15.0564 0.779297C14.615 1.9307 13.5 2.74854 12.1933 2.74854C10.8868 2.74854 9.77178 1.9307 9.33033 0.779297C8.05856 1.08348 6.86385 1.58545 5.78036 2.25129C6.28171 3.3774 6.0713 4.74338 5.14764 5.66716C4.54917 6.26564 3.76501 6.56466 2.9808 6.56466C2.55489 6.56466 2.1291 6.47648 1.73283 6.30025C1.06755 7.38386 0.566011 8.57901 0.262329 9.85084C1.41255 10.2928 2.22921 11.4074 2.22921 12.7132C2.22921 14.0186 1.41311 15.1327 0.263634 15.575C0.567999 16.8468 1.07003 18.0415 1.73593 19.125C2.13115 18.9497 2.556 18.862 2.98067 18.862C3.76495 18.862 4.54898 19.161 5.14758 19.7595C6.06981 20.6817 6.2809 22.0451 5.78235 23.1703C6.86596 23.8359 8.06068 24.3375 9.33251 24.6414C9.77539 23.4931 10.8889 22.678 12.1933 22.678C13.4977 22.678 14.6112 23.493 15.0541 24.6414C16.3259 24.3375 17.5206 23.8358 18.6043 23.1702C18.1057 22.0451 18.3168 20.6817 19.2391 19.7595C19.8375 19.1609 20.6216 18.8619 21.4058 18.8619C21.8306 18.8619 22.2553 18.9496 22.6507 19.125C23.3166 18.0415 23.8186 16.8468 24.1229 15.575C22.9734 15.1327 22.1574 14.0185 22.1574 12.7132C22.1574 11.4074 22.9741 10.2929 24.1242 9.85084C23.8206 8.57907 23.3191 7.38386 22.6537 6.30019C22.2576 6.47642 21.8316 6.56453 21.4058 6.56453C20.6215 6.56453 19.8375 6.26557 19.2389 5.6671C18.3153 4.7435 18.105 3.37746 18.6063 2.25122C17.523 1.58545 16.3282 1.08348 15.0564 0.779297Z" fill="#555555"/>
</svg>
