<svg width="29" height="28" viewBox="0 0 29 28" fill="none" xmlns="http://www.w3.org/2000/svg">
<path fill-rule="evenodd" clip-rule="evenodd" d="M24.6062 20.2129C22.4551 20.2129 20.7124 21.9556 20.7124 24.1066C20.7124 26.2577 22.4551 28.0004 24.6062 28.0004C26.7572 28.0004 28.4999 26.2577 28.4999 24.1066C28.4999 21.9556 26.7572 20.2129 24.6062 20.2129ZM24.6062 26.8337C23.1041 26.8337 21.8791 25.6087 21.8791 24.1066C21.8791 22.6046 23.1041 21.3796 24.6062 21.3796C26.1082 21.3796 27.3332 22.6046 27.3332 24.1066C27.3332 25.6087 26.1082 26.8337 24.6062 26.8337Z" fill="#F4911F"/>
<path fill-rule="evenodd" clip-rule="evenodd" d="M14.5 20.2129C12.3489 20.2129 10.6062 21.9556 10.6062 24.1066C10.6062 26.2577 12.3489 28.0004 14.5 28.0004C16.651 28.0004 18.3937 26.2577 18.3937 24.1066C18.3937 21.9556 16.651 20.2129 14.5 20.2129ZM14.5 26.8337C12.9979 26.8337 11.7729 25.6087 11.7729 24.1066C11.7729 22.6046 12.9979 21.3796 14.5 21.3796C16.002 21.3796 17.227 22.6046 17.227 24.1066C17.227 25.6087 16.002 26.8337 14.5 26.8337Z" fill="#F4911F"/>
<path fill-rule="evenodd" clip-rule="evenodd" d="M4.39375 20.2129C2.24271 20.2129 0.5 21.9556 0.5 24.1066C0.5 26.2577 2.24271 28.0004 4.39375 28.0004C6.54479 28.0004 8.2875 26.2577 8.2875 24.1066C8.2875 21.9556 6.54479 20.2129 4.39375 20.2129ZM4.39375 26.8337C2.89167 26.8337 1.66667 25.6087 1.66667 24.1066C1.66667 22.6046 2.89167 21.3796 4.39375 21.3796C5.89583 21.3796 7.12083 22.6046 7.12083 24.1066C7.12083 25.6087 5.90312 26.8337 4.39375 26.8337Z" fill="#F4911F"/>
<path fill-rule="evenodd" clip-rule="evenodd" d="M24.6062 10.1064C22.4551 10.1064 20.7124 11.8492 20.7124 14.0002C20.7124 16.1512 22.4551 17.8939 24.6062 17.8939C26.7572 17.8939 28.4999 16.1512 28.4999 14.0002C28.4999 11.8492 26.7572 10.1064 24.6062 10.1064ZM24.6062 16.7273C23.1041 16.7273 21.8791 15.5023 21.8791 14.0002C21.8791 12.4981 23.1041 11.2731 24.6062 11.2731C26.1082 11.2731 27.3332 12.4981 27.3332 14.0002C27.3332 15.5023 26.1082 16.7273 24.6062 16.7273Z" fill="#F4911F"/>
<path fill-rule="evenodd" clip-rule="evenodd" d="M14.5 10.1064C12.3489 10.1064 10.6062 11.8492 10.6062 14.0002C10.6062 16.1512 12.3489 17.8939 14.5 17.8939C16.651 17.8939 18.3937 16.1512 18.3937 14.0002C18.3937 11.8492 16.651 10.1064 14.5 10.1064ZM14.5 16.7273C12.9979 16.7273 11.7729 15.5023 11.7729 14.0002C11.7729 12.4981 12.9979 11.2731 14.5 11.2731C16.002 11.2731 17.227 12.4981 17.227 14.0002C17.227 15.5023 16.002 16.7273 14.5 16.7273Z" fill="#F4911F"/>
<path fill-rule="evenodd" clip-rule="evenodd" d="M4.39375 10.1064C2.24271 10.1064 0.5 11.8492 0.5 14.0002C0.5 16.1512 2.24271 17.8939 4.39375 17.8939C6.54479 17.8939 8.2875 16.1512 8.2875 14.0002C8.2875 11.8492 6.54479 10.1064 4.39375 10.1064ZM4.39375 16.7273C2.89167 16.7273 1.66667 15.5023 1.66667 14.0002C1.66667 12.4981 2.89167 11.2731 4.39375 11.2731C5.89583 11.2731 7.12083 12.4981 7.12083 14.0002C7.12083 15.5023 5.90312 16.7273 4.39375 16.7273Z" fill="#F4911F"/>
<path fill-rule="evenodd" clip-rule="evenodd" d="M24.6062 7.7875C26.7572 7.7875 28.4999 6.04479 28.4999 3.89375C28.4999 1.74271 26.7572 0 24.6062 0C22.4551 0 20.7124 1.74271 20.7124 3.89375C20.7124 6.04479 22.4551 7.7875 24.6062 7.7875ZM24.6062 1.16667C26.1082 1.16667 27.3332 2.39167 27.3332 3.89375C27.3332 5.39583 26.1082 6.62083 24.6062 6.62083C23.1041 6.62083 21.8791 5.39583 21.8791 3.89375C21.8791 2.39167 23.0968 1.16667 24.6062 1.16667Z" fill="#F4911F"/>
<path fill-rule="evenodd" clip-rule="evenodd" d="M14.5 0C12.3489 0 10.6062 1.74271 10.6062 3.89375C10.6062 6.04479 12.3489 7.7875 14.5 7.7875C16.651 7.7875 18.3937 6.04479 18.3937 3.89375C18.3937 1.74271 16.651 0 14.5 0ZM14.5 6.62083C12.9979 6.62083 11.7729 5.39583 11.7729 3.89375C11.7729 2.39167 12.9979 1.16667 14.5 1.16667C16.002 1.16667 17.227 2.39167 17.227 3.89375C17.227 5.39583 16.002 6.62083 14.5 6.62083Z" fill="#F4911F"/>
<path fill-rule="evenodd" clip-rule="evenodd" d="M4.39375 0C2.24271 0 0.5 1.74271 0.5 3.89375C0.5 6.04479 2.24271 7.7875 4.39375 7.7875C6.54479 7.7875 8.2875 6.04479 8.2875 3.89375C8.2875 1.74271 6.54479 0 4.39375 0ZM4.39375 6.62083C2.89167 6.62083 1.66667 5.39583 1.66667 3.89375C1.66667 2.39167 2.89167 1.16667 4.39375 1.16667C5.89583 1.16667 7.12083 2.39167 7.12083 3.89375C7.12083 5.39583 5.90312 6.62083 4.39375 6.62083Z" fill="#F4911F"/>
</svg>
