<svg width="25" height="25" viewBox="0 0 25 25" fill="none" xmlns="http://www.w3.org/2000/svg">
<path d="M12.5 24C18.8513 24 24 18.8513 24 12.5C24 6.14873 18.8513 1 12.5 1C6.14873 1 1 6.14873 1 12.5C1 18.8513 6.14873 24 12.5 24Z" stroke="#F4911F" stroke-linecap="round" stroke-linejoin="round"/>
<path d="M9.15332 9.04929C9.42369 8.28071 9.95735 7.63261 10.6598 7.21979C11.3622 6.80697 12.1881 6.65607 12.9911 6.79381C13.7941 6.93155 14.5225 7.34904 15.0472 7.97234C15.5719 8.59565 15.859 9.38454 15.8578 10.1993C15.8578 12.4993 12.4078 13.6493 12.4078 13.6493" stroke="#F4911F" stroke-linecap="round" stroke-linejoin="round"/>
<path d="M12.5 18.25H12.511" stroke="#F4911F" stroke-linecap="round" stroke-linejoin="round"/>
</svg>
