<svg width="29" height="28" viewBox="0 0 29 28" fill="none" xmlns="http://www.w3.org/2000/svg">
<path fill-rule="evenodd" clip-rule="evenodd" d="M16.3571 3.83393C18.9857 4.04895 21.4267 5.17015 23.3103 7.05456C25.4132 9.15836 26.5714 11.9542 26.5714 14.9313C26.5714 16.4359 26.2765 17.8936 25.6951 19.2668C25.1333 20.5934 24.3289 21.7846 23.3044 22.8084C22.2798 23.8321 21.0872 24.6354 19.7595 25.1966C18.3857 25.7775 16.9261 26.0718 15.4213 26.0718C13.0306 26.0718 10.7511 25.3262 8.82933 23.916C7.90366 23.2367 7.09075 22.4226 6.41313 21.4964C5.92691 20.8317 5.5181 20.1196 5.192 19.3703L15.6535 16.7583L16.3571 16.5826V15.8574V3.84403V3.83393ZM15.4285 2.85742V15.8574L3.95166 18.723C5.5423 23.531 10.08 27.0003 15.4213 27.0003C22.0881 27.0003 27.4999 21.5957 27.4999 14.9289C27.4999 8.262 22.1026 2.85742 15.4285 2.85742Z" fill="#F4911F"/>
<path fill-rule="evenodd" clip-rule="evenodd" d="M13.5714 1.93908V14.4134L3.10515 17.0674C2.57604 15.6996 2.45533 13.761 2.45759 13.0342V13.0321V13.03C2.45759 10.2843 3.41315 7.58943 5.07924 5.63642C6.05046 4.49787 7.25569 3.60627 8.66126 2.98633C10.095 2.35403 11.7444 2.00251 13.5714 1.93908ZM14.5 1H14.1808C4.89509 1 1.5 7.74665 1.5 13.03C1.5 13.03 1.51451 16.3187 2.59746 18.1541L14.5 15.1359V1Z" fill="#F4911F"/>
</svg>
